# AST/ASF file generated using VICON BodyLanguage
# -----------------------------------------------
:version 1.10
:name VICON
:units
  mass 1.0
  length 0.45
  angle deg
:documentation
   .ast/.asf automatically generated from VICON data using
   VICON BodyBuilder and BodyLanguage model FoxedUp or BRILLIANT.MOD
:root
   order TX TY TZ RX RY RZ
   axis XYZ
   position 0 0 0  
   orientation 0 0 0 
:bonedata
  begin
     id 1 
     name lhipjoint
     direction 0.64773 -0.699417 0.302095 
     length 2.48597 
     axis 0 0 0  XYZ
  end
  begin
     id 2 
     name lfemur
     direction 0.34202 -0.939693 0  
     length 6.71947  
     axis 0 0 20  XYZ
    dof rx ry rz
    limits (-160.0 20.0)
           (-70.0 70.0)
           (-60.0 70.0)
  end
  begin
     id 3 
     name ltibia
     direction 0.34202 -0.939693 0   
     length 8.08777   
     axis 0 0 20   XYZ
    dof rx
    limits (-10.0 170.0)
  end
  begin
     id 4 
     name lfoot
     direction 0.0808503 -0.222134 0.971658   
     length 2.08264   
     axis -90 7.62852e-016 20   XYZ
    dof rx rz
    limits (-45.0 90.0)
           (-70.0 20.0)
  end
  begin
     id 5 
     name ltoes
     direction 1.53502e-011 -4.22007e-011 1   
     length 1.04662   
     axis -90 7.62852e-016 20   XYZ
    dof rx
    limits (-90.0 20.0)
  end
  begin
     id 6 
     name rhipjoint
     direction -0.610924 -0.726792 0.313919   
     length 2.39233  
     axis 0 0 0  XYZ 
  end
  begin
     id 7 
     name rfemur
     direction -0.34202 -0.939693 0   
     length 6.96955   
     axis 0 0 -20   XYZ
    dof rx ry rz
    limits (-160.0 20.0)
           (-70.0 70.0)
           (-70.0 60.0)
  end
  begin
     id 8 
     name rtibia
     direction -0.34202 -0.939693 0   
     length 8.19584   
     axis 0 0 -20   XYZ
    dof rx
    limits (-10.0 170.0)
 end
 begin
     id 9 
     name rfoot
     direction -0.077777 -0.213691 0.9738   
     length 2.07539  
     axis -90 -7.62852e-016 -20   XYZ
    dof rx rz
    limits (-45.0 90.0)
           (-20.0 70.0)
  end
  begin
     id 10 
     name rtoes
     direction -1.53558e-011 -4.22006e-011 1   
     length 1.04381   
     axis -90 -7.62852e-016 -20   XYZ
    dof rx
    limits (-90.0 20.0)
  end
  begin
     id 11 
     name lowerback
     direction -0.00971646 0.996074 0.0879841   
     length 1.67643   
     axis 0 0 0   XYZ
    dof rx ry rz
    limits (-20.0 45.0)
           (-30.0 30.0)
           (-30.0 30.0)
  end
  begin
     id 12 
     name upperback
     direction 0.0127391 0.991676 0.128127   
     length 1.63741   
     axis 0 0 0   XYZ
    dof rx ry rz
    limits (-20.0 45.0)
           (-30.0 30.0)
           (-30.0 30.0)
  end
  begin
     id 13 
     name thorax
     direction 0.0167583 0.996049 0.0872067   
     length 1.65931   
     axis 0 0 0   XYZ
    dof rx ry rz
    limits (-20.0 45.0)
           (-30.0 30.0)
           (-30.0 30.0)
  end
  begin
     id 14 
     name lowerneck
     direction -0.0317829 0.998312 0.0486079   
     length 1.79021   
     axis 0 0 0   XYZ
    dof rx ry rz
    limits (-20.0 45.0)
           (-30.0 30.0)
           (-30.0 30.0)
  end
  begin
     id 15 
     name upperneck
     direction 0.0896851 0.972452 -0.215159   
     length 1.78797   
     axis 0 0 0   XYZ
    dof rx ry rz
    limits (-20.0 45.0)
           (-30.0 30.0)
           (-30.0 30.0)
  end
  begin
     id 16
     name head
     direction 0.0310949 0.996503 -0.0775582  
     length 1.81549  
     axis 0 0 0   XYZ
    dof rx ry rz
    limits (-20.0 45.0)
           (-30.0 30.0)
           (-30.0 30.0)
  end
  begin
     id 17 
     name lclavicle
     direction 0.853638 0.502051 -0.138733  
     length 3.31627  
     axis 0 0 0   XYZ
    dof ry rz
    limits (-20.0 10.0)
           (0.0 20.0)
  end
  begin
     id 18 
     name lhumerus
     direction 1 -4.48962e-011 -1.41788e-018   
     length 5.54893   
     axis 180 -30 -90   XYZ
    dof rx ry rz
    limits (-60.0 90.0)
           (-90.0 90.0)
           (-90.0 90.0)
  end
  begin
     id 19
     name lradius
     direction 1 -4.48962e-011 -4.95754e-027   
     length 3.02898   
     axis 180 -30 -90   XYZ
    dof rx
    limits (-10.0 170.0)
  end
  begin
     id 20
     name lwrist
     direction 1 -4.48952e-011 -1.03764e-026   
     length 1.51449   
     axis 9.09556e-015 90 90   XYZ
    dof ry
    limits (-180.0 0.0)
 end
  begin
     id 21 
     name lhand
     direction 1 -4.4902e-011 -2.07528e-026   
     length 0.640951   
     axis 1.3242e-014 90 90   XYZ
    dof rx rz
    limits (-90.0 90.0)
           (-45.0 45.0)
  end
  begin
     id 22 
     name lfingers
     direction 1 -4.49014e-011 -4.15056e-026   
     length 0.516751   
     axis 2.64841e-014 90 90   XYZ
    dof rx
    limits (0.0 90.0)
  end
  begin
     id 23
     name lthumb
     direction 0.707107 -6.35008e-011 0.707107   
     length 0.741954   
     axis -90 45 2.85299e-015   XYZ
    dof rx rz
    limits (-45.0 45.0)
           (-45.0 45.0)
  end
  begin
     id 24 
     name rclavicle
     direction -0.888531 0.455324 -0.0565039   
     length 3.20126  
     axis 0 0 0   XYZ 
    dof ry rz
    limits (-10.0 20.0)
           (-20.0 0.0)
  end
  begin
     id 25 
     name rhumerus
     direction -1 -4.48946e-011 -8.98298e-028  
     length 5.3519   
     axis 180 30 90   XYZ
    dof rx ry rz
    limits (-90.0 60.0)
           (-90.0 90.0)
           (-90.0 90.0)
  end
  begin
     id 26 
     name rradius
     direction -1 -4.4899e-011 -3.18779e-027   
     length 3.02531   
     axis 180 30 90   XYZ
    dof rx
    limits (-10.0 170.0)
  end
  begin
     id 27 
     name rwrist
     direction -1 -4.4897e-011 -1.03764e-026   
     length 1.51266   
     axis 9.09556e-015 -90 -90   XYZ
    dof ry
    limits (-180.0 0.0)
  end
  begin
     id 28
     name rhand
     direction -1 -4.48941e-011 -2.07528e-026   
     length 0.78389   
     axis 1.3242e-014 -90 -90   XYZ
    dof rx rz
    limits (-90.0 90.0)
           (-45.0 45.0)
  end
  begin
     id 29
     name rfingers
     direction -1 -4.49012e-011 -4.15056e-026   
     length 0.631992   
     axis 2.64841e-014 -90 -90   XYZ
    dof rx
    limits (0.0 90.0)
  end
  begin
     id 30
     name rthumb
     direction -0.707107 -6.3496e-011 0.707107   
     length 0.907418   
     axis -90 -45 -2.85299e-015   XYZ
    dof rx rz
    limits (-45.0 45.0)
           (-45.0 45.0)
  end
:hierarchy
  begin
    root lhipjoint rhipjoint lowerback
    lhipjoint lfemur
    lfemur ltibia
    ltibia lfoot
    lfoot ltoes
    rhipjoint rfemur
    rfemur rtibia
    rtibia rfoot
    rfoot rtoes
    lowerback upperback
    upperback thorax
    thorax lowerneck lclavicle rclavicle
    lowerneck upperneck
    upperneck head
    lclavicle lhumerus
    lhumerus lradius
    lradius lwrist
    lwrist lhand lthumb
    lhand lfingers
    rclavicle rhumerus
    rhumerus rradius
    rradius rwrist
    rwrist rhand rthumb
    rhand rfingers
  end

#!OML:ASF E:\Style3\Style3.ASF
:FULLY-SPECIFIED
:DEGREES
2105
root -0.0735511 17.7356 -0.639311 -179.898 81.6956 -192.542
lowerback -4.45675 -2.31755 -3.93299
upperback -7.59349 -2.77708 0.192555
thorax -5.18936 -1.04919 2.38476
lowerneck -7.18365 -7.37521 -10.5539
upperneck 30.831 -7.42109 -0.458032
head 11.7182 -4.24488 0.787396
rclavicle -3.03954e-014 -1.20762e-014
rhumerus 50.3781 -5.37422 -13.4581
rradius 112.762
rwrist -50.0286
rhand -0.698596 21.3791
rfingers 7.12502
rthumb 24.9211 -7.01607
lclavicle -3.03954e-014 -1.20762e-014
lhumerus 40.1092 -5.74648 37.8542
lradius 107.518
lwrist 80.4102
lhand -1.56354 25.9937
lfingers 7.12502
lthumb 24.092 54.5012
rfemur -13.9019 9.84616 9.60549
rtibia 18.3337
rfoot -13.8714 -26.3835
rtoes -11.0749
lfemur -14.3941 -11.8326 -19.9306
ltibia 13.6002
lfoot -10.6424 7.88886
ltoes -13.0231
2106
root -0.0575426 17.7356 -0.630432 -179.843 81.5993 -192.404
lowerback -4.34879 -2.31285 -3.89483
upperback -7.7294 -2.77331 0.145403
thorax -5.39945 -1.04064 2.32147
lowerneck -7.43244 -7.53477 -10.306
upperneck 31.037 -7.54088 -0.876459
head 11.8273 -4.32144 0.563299
rclavicle 7.56003e-015 -1.5207e-014
rhumerus 50.1138 -5.97007 -13.7837
rradius 112.562
rwrist -50.2251
rhand -0.27531 21.4161
rfingers 7.12502
rthumb 25.3266 -6.92223
lclavicle 7.56003e-015 -1.5207e-014
lhumerus 40.0309 -6.04109 37.7457
lradius 107.797
lwrist 80.3171
lhand -1.54432 26.1084
lfingers 7.12502
lthumb 24.1104 54.6135
rfemur -13.6802 9.82055 9.70101
rtibia 18.2655
rfoot -13.9176 -26.4469
rtoes -11.0148
lfemur -14.2879 -11.8838 -19.9042
ltibia 13.6761
lfoot -10.7647 7.83825
ltoes -12.8239
2107
root -0.043259 17.7354 -0.622815 -178.928 81.5187 -191.458
lowerback -4.36713 -2.3296 -3.7644
upperback -7.83245 -2.78968 0.1839
thorax -5.50127 -1.04823 2.29011
lowerneck -7.50396 -7.57212 -10.2521
upperneck 31.0449 -7.56802 -0.987255
head 11.8389 -4.34149 0.50666
rclavicle -1.82882e-014 -4.82053e-015
rhumerus 50.0787 -6.5874 -14.0778
rradius 112.162
rwrist -50.2998
rhand 0.132234 21.3998
rfingers 7.12502
rthumb 25.717 -6.88271
lclavicle -1.82882e-014 -4.82053e-015
lhumerus 39.9229 -6.21671 37.7041
lradius 108.11
lwrist 80.2985
lhand -1.51661 26.3011
lfingers 7.12502
lthumb 24.137 54.8026
rfemur -13.5579 9.75613 9.90797
rtibia 18.2011
rfoot -13.9361 -26.4358
rtoes -11.0499
lfemur -14.2308 -11.9229 -19.7312
ltibia 13.6988
lfoot -10.8345 7.77402
ltoes -12.6909
2108
root -0.0278143 17.7354 -0.612573 -177.89 81.4317 -190.417
lowerback -4.51704 -2.3478 -3.66058
upperback -7.88497 -2.8013 0.236988
thorax -5.4732 -1.05577 2.28248
lowerneck -7.44596 -7.51539 -10.3589
upperneck 30.911 -7.54313 -0.78541
head 11.786 -4.319 0.606351
rclavicle 2.94947e-014 9.93923e-015
rhumerus 50.0601 -7.23572 -14.2716
rradius 111.805
rwrist -50.4149
rhand 0.100586 21.6263
rfingers 7.12502
rthumb 25.6867 -6.6606
lclavicle 2.94947e-014 9.93923e-015
lhumerus 39.8446 -6.3805 37.6053
lradius 108.451
lwrist 80.2078
lhand -1.92843 26.7377
lfingers 7.12502
lthumb 23.742 55.2911
rfemur -13.4656 9.72736 10.1436
rtibia 18.1485
rfoot -13.8372 -26.5444
rtoes -11.4593
lfemur -14.1903 -11.8742 -19.5347
ltibia 13.6765
lfoot -10.848 7.68998
ltoes -12.936
2109
root -0.00847356 17.734 -0.603671 -177.971 81.4144 -190.424
lowerback -4.66139 -2.32105 -3.66819
upperback -7.88373 -2.75741 0.205586
thorax -5.3942 -1.0351 2.24847
lowerneck -7.30447 -7.46666 -10.2966
upperneck 30.6034 -7.5519 -0.687474
head 11.6338 -4.30535 0.641445
rclavicle 4.13721e-015 -6.36111e-015
rhumerus 50.0228 -7.97987 -14.497
rradius 111.473
rwrist -50.6655
rhand 0.53387 21.7252
rfingers 7.12502
rthumb 26.1016 -6.50111
lclavicle 4.13721e-015 -6.36111e-015
lhumerus 39.7948 -6.57725 37.4946
lradius 108.68
lwrist 79.7857
lhand -2.33127 27.3216
lfingers 7.12502
lthumb 23.3556 55.9246
rfemur -13.2877 9.76989 10.2033
rtibia 18.0959
rfoot -13.8433 -26.6143
rtoes -11.6159
lfemur -14.039 -11.9524 -19.5162
ltibia 13.6526
lfoot -10.8717 7.75459
ltoes -13.0097
2110
root 0.0123953 17.7331 -0.598004 -178.578 81.4026 -190.958
lowerback -4.83816 -2.25927 -3.65192
upperback -7.84485 -2.66856 0.110001
thorax -5.26342 -0.997548 2.13308
lowerneck -7.2822 -7.4078 -10.1341
upperneck 30.3049 -7.52411 -0.685195
head 11.4983 -4.27575 0.625164
rclavicle 1.10139e-014 -4.17448e-015
rhumerus 49.9906 -8.85842 -14.7238
rradius 111.128
rwrist -50.7802
rhand 1.20721 21.6507
rfingers 7.12502
rthumb 26.7462 -6.47878
lclavicle 1.10139e-014 -4.17448e-015
lhumerus 39.8232 -6.74267 37.3972
lradius 108.993
lwrist 79.5759
lhand -2.255 27.4672
lfingers 7.12502
lthumb 23.4288 56.0609
rfemur -13.1185 9.71002 10.1675
rtibia 18.0905
rfoot -13.9559 -26.5178
rtoes -11.6081
lfemur -13.8253 -12.0956 -19.6008
ltibia 13.5784
lfoot -10.8995 7.8993
ltoes -13.066
2111
root 0.0316259 17.7328 -0.589116 -178.582 81.3403 -190.967
lowerback -5.05276 -2.22267 -3.66835
upperback -7.85986 -2.6055 0.094474
thorax -5.16232 -0.96551 2.1189
lowerneck -7.3098 -7.35225 -10.0524
upperneck 30.1112 -7.48896 -0.629028
head 11.4217 -4.24511 0.639094
rclavicle 1.94126e-014 -1.0138e-014
rhumerus 50.0212 -9.75757 -14.9042
rradius 110.856
rwrist -50.8146
rhand 1.6961 21.3694
rfingers 7.12502
rthumb 27.2139 -6.68764
lclavicle 1.94126e-014 -1.0138e-014
lhumerus 39.8318 -6.93769 37.443
lradius 109.401
lwrist 79.6791
lhand -1.6376 27.0281
lfingers 7.12502
lthumb 24.0209 55.545
rfemur -13.0525 9.65017 10.2191
rtibia 18.1264
rfoot -14.159 -26.4883
rtoes -11.2529
lfemur -13.691 -12.168 -19.5723
ltibia 13.4482
lfoot -10.9362 7.88219
ltoes -12.834
2112
root 0.046873 17.7319 -0.579351 -178.524 81.2309 -190.938
lowerback -5.20019 -2.23552 -3.70222
upperback -7.89889 -2.61023 0.114186
thorax -5.11843 -0.963613 2.1534
lowerneck -7.43754 -7.30077 -9.95202
upperneck 29.919 -7.44464 -0.613583
head 11.363 -4.21431 0.63214
rclavicle 1.50952e-015 5.96354e-016
rhumerus 50.1921 -10.6615 -15.1064
rradius 110.601
rwrist -50.8219
rhand 2.35816 20.9473
rfingers 7.12502
rthumb 27.8471 -7.00895
lclavicle 1.50952e-015 5.96354e-016
lhumerus 39.752 -7.09306 37.5195
lradius 109.815
lwrist 79.7526
lhand -1.15079 26.819
lfingers 7.12502
lthumb 24.4877 55.2735
rfemur -13.0274 9.54366 10.2761
rtibia 18.1777
rfoot -14.3527 -26.4724
rtoes -11.2577
lfemur -13.6291 -12.2171 -19.5327
ltibia 13.3519
lfoot -10.9351 7.8249
ltoes -12.8629
2113
root 0.0599987 17.7303 -0.570524 -178.668 81.1451 -191.066
lowerback -5.24641 -2.26346 -3.7537
upperback -7.94696 -2.64043 0.144366
thorax -5.13855 -0.97213 2.21217
lowerneck -7.46583 -7.2212 -9.84845
upperneck 29.608 -7.3636 -0.642245
head 11.2348 -4.17154 0.618741
rclavicle 2.29721e-014 4.47266e-015
rhumerus 50.4635 -11.5054 -15.2627
rradius 110.223
rwrist -50.8639
rhand 3.35854 20.9839
rfingers 7.12502
rthumb 28.8031 -6.81352
lclavicle 2.29721e-014 4.47266e-015
lhumerus 39.5864 -7.18982 37.5821
lradius 110.255
lwrist 80.0897
lhand -1.00815 27.2058
lfingers 7.12502
lthumb 24.6244 55.6418
rfemur -12.9537 9.42182 10.3179
rtibia 18.2095
rfoot -14.3243 -26.4696
rtoes -11.8614
lfemur -13.5525 -12.2988 -19.525
ltibia 13.3103
lfoot -10.9547 7.82379
ltoes -12.9912
2114
root 0.0741227 17.7294 -0.562597 -178.834 81.0714 -191.245
lowerback -5.30177 -2.27851 -3.7822
upperback -8.01491 -2.65315 0.142954
thorax -5.17813 -0.972674 2.22553
lowerneck -7.45825 -7.15359 -9.68452
upperneck 29.3281 -7.3047 -0.696131
head 11.1092 -4.1347 0.584667
rclavicle 9.18137e-015 3.926e-015
rhumerus 50.7456 -12.3814 -15.5065
rradius 109.857
rwrist -51.0075
rhand 4.57783 21.0494
rfingers 7.12502
rthumb 29.9672 -6.54376
lclavicle 9.18137e-015 3.926e-015
lhumerus 39.4109 -7.32632 37.5673
lradius 110.733
lwrist 80.4997
lhand -0.721787 27.4653
lfingers 7.12502
lthumb 24.8988 55.8635
rfemur -12.9119 9.35694 10.332
rtibia 18.2408
rfoot -14.4104 -26.4743
rtoes -11.8472
lfemur -13.4947 -12.3648 -19.5228
ltibia 13.2529
lfoot -10.9264 7.80294
ltoes -13.266
2115
root 0.0902542 17.7301 -0.55187 -178.449 81.0072 -190.888
lowerback -5.43679 -2.24791 -3.70251
upperback -8.07006 -2.6025 0.130078
thorax -5.16767 -0.948932 2.16441
lowerneck -7.40424 -7.09054 -9.64741
upperneck 29.0428 -7.29242 -0.540467
head 10.9904 -4.10869 0.642409
rclavicle -1.46914e-014 -4.87022e-015
rhumerus 50.9961 -13.3554 -15.8045
rradius 109.553
rwrist -51.37
rhand 5.62532 20.6797
rfingers 7.12502
rthumb 30.9662 -6.72822
lclavicle -1.46914e-014 -4.87022e-015
lhumerus 39.3657 -7.55602 37.5527
lradius 111.218
lwrist 80.7778
lhand 0.165585 27.1484
lfingers 7.12502
lthumb 25.749 55.4263
rfemur -12.8787 9.30808 10.4485
rtibia 18.2451
rfoot -14.4184 -26.5161
rtoes -11.9578
lfemur -13.4525 -12.4521 -19.4078
ltibia 13.2034
lfoot -10.9337 7.80703
ltoes -13.2692
2116
root 0.105762 17.7304 -0.541041 -178.487 80.9676 -190.912
lowerback -5.54161 -2.23199 -3.74461
upperback -8.10413 -2.57096 0.160273
thorax -5.14426 -0.928114 2.21649
lowerneck -7.45053 -7.0058 -9.62051
upperneck 28.7991 -7.22279 -0.42732
head 10.9042 -4.06273 0.689124
rclavicle 2.21956e-014 7.95139e-015
rhumerus 51.4179 -14.3079 -16.0922
rradius 109.225
rwrist -51.9073
rhand 7.04641 20.5294
rfingers 7.12502
rthumb 32.3199 -6.61185
lclavicle 2.21956e-014 7.95139e-015
lhumerus 39.3032 -7.75355 37.635
lradius 111.772
lwrist 80.8508
lhand 1.19387 26.6777
lfingers 7.12502
lthumb 26.7334 54.8091
rfemur -12.7825 9.29581 10.5045
rtibia 18.2243
rfoot -14.5117 -26.537
rtoes -11.919
lfemur -13.3705 -12.4308 -19.3871
ltibia 13.1833
lfoot -10.9703 7.77019
ltoes -13.4695
2117
root 0.120613 17.7309 -0.533821 -178.321 80.918 -190.756
lowerback -5.73642 -2.2187 -3.69678
upperback -8.1058 -2.5416 0.161471
thorax -5.03992 -0.91681 2.18459
lowerneck -7.55259 -6.91864 -9.40641
upperneck 28.5732 -7.14088 -0.450709
head 10.8197 -4.00716 0.655894
rclavicle -5.77718e-016 -1.59028e-015
rhumerus 51.8878 -15.3113 -16.3997
rradius 108.831
rwrist -52.3837
rhand 8.66145 20.5753
rfingers 7.12502
rthumb 33.8557 -6.2404
lclavicle -5.77718e-016 -1.59028e-015
lhumerus 39.3597 -7.88467 37.6723
lradius 112.253
lwrist 80.9417
lhand 2.13178 26.2526
lfingers 7.12502
lthumb 27.6306 54.2436
rfemur -12.7073 9.29647 10.5754
rtibia 18.1843
rfoot -14.5523 -26.5806
rtoes -11.7917
lfemur -13.3209 -12.4256 -19.3407
ltibia 13.1531
lfoot -10.9859 7.74414
ltoes -13.7758
2118
root 0.134426 17.7308 -0.525118 -178.206 80.8209 -190.713
lowerback -5.9402 -2.21591 -3.62234
upperback -8.14371 -2.52567 0.124832
thorax -4.97105 -0.912241 2.09869
lowerneck -7.45102 -6.78034 -9.22496
upperneck 28.1829 -7.0455 -0.331159
head 10.6398 -3.93245 0.689992
rclavicle 2.58358e-014 1.4561e-014
rhumerus 52.3704 -16.3137 -16.7488
rradius 108.397
rwrist -52.7883
rhand 9.8699 20.2003
rfingers 7.12502
rthumb 35.0029 -6.35509
lclavicle 2.58358e-014 1.4561e-014
lhumerus 39.4694 -8.04413 37.5984
lradius 112.67
lwrist 81.1209
lhand 2.94563 25.6597
lfingers 7.12502
lthumb 28.4086 53.5236
rfemur -12.6894 9.29553 10.6128
rtibia 18.1299
rfoot -14.6413 -26.6521
rtoes -11.759
lfemur -13.3603 -12.4611 -19.2906
ltibia 13.1081
lfoot -10.9431 7.71636
ltoes -13.9622
2119
root 0.148046 17.7326 -0.5158 -178.211 80.6483 -190.781
lowerback -6.09934 -2.24084 -3.56896
upperback -8.18662 -2.54876 0.0857727
thorax -4.92968 -0.925486 2.02288
lowerneck -7.40462 -6.64514 -9.0952
upperneck 27.8698 -6.94599 -0.170442
head 10.5051 -3.8569 0.743944
rclavicle -2.97618e-014 -5.2181e-015
rhumerus 52.9706 -17.249 -17.2118
rradius 107.88
rwrist -53.2544
rhand 11.3644 19.9051
rfingers 7.12502
rthumb 36.4192 -6.30735
lclavicle -2.97618e-014 -5.2181e-015
lhumerus 39.5764 -8.17863 37.5462
lradius 113.162
lwrist 81.2133
lhand 3.70713 25.2943
lfingers 7.12502
lthumb 29.1361 53.0345
rfemur -12.6203 9.27909 10.6465
rtibia 18.0605
rfoot -14.7006 -26.8077
rtoes -11.7492
lfemur -13.3982 -12.541 -19.2543
ltibia 13.0876
lfoot -10.9462 7.58483
ltoes -13.8367
